Rhodium-Regular.ufo
<glyph name="ampersand" format="1">
  <advance width="678"/>
  <unicode hex="0026"/>
  <outline>
    <contour>
      <point x="514" y="165"/>
      <point x="431" y="62"/>
      <point x="283" y="62" type="curve" smooth="yes"/>
      <point x="188" y="62"/>
      <point x="128" y="102"/>
      <point x="128" y="202" type="curve" smooth="yes"/>
      <point x="128" y="289"/>
      <point x="154" y="325"/>
      <point x="267" y="368" type="curve" smooth="yes"/>
      <point x="420" y="425"/>
      <point x="461" y="474"/>
      <point x="461" y="562" type="curve" smooth="yes"/>
      <point x="461" y="642"/>
      <point x="415" y="692"/>
      <point x="315" y="692" type="curve" smooth="yes"/>
      <point x="197" y="692"/>
      <point x="146" y="637"/>
      <point x="146" y="545" type="curve" smooth="yes"/>
      <point x="146" y="500"/>
      <point x="158" y="459"/>
      <point x="200" y="398" type="curve"/>
      <point x="230" y="358" type="line"/>
      <point x="539" y="0" type="line"/>
      <point x="648" y="0" type="line"/>
      <point x="648" y="55" type="line"/>
      <point x="577" y="85" type="line"/>
      <point x="301" y="391" type="line"/>
      <point x="275" y="423" type="line"/>
      <point x="248" y="460"/>
      <point x="226" y="504"/>
      <point x="226" y="546" type="curve" smooth="yes"/>
      <point x="226" y="599"/>
      <point x="252" y="629"/>
      <point x="315" y="629" type="curve" smooth="yes"/>
      <point x="370" y="629"/>
      <point x="389" y="602"/>
      <point x="389" y="556" type="curve" smooth="yes"/>
      <point x="389" y="491"/>
      <point x="362" y="463"/>
      <point x="243" y="422" type="curve" smooth="yes"/>
      <point x="79" y="365"/>
      <point x="38" y="307"/>
      <point x="38" y="190" type="curve" smooth="yes"/>
      <point x="38" y="56"/>
      <point x="126" y="-12"/>
      <point x="271" y="-12" type="curve" smooth="yes"/>
      <point x="462" y="-12"/>
      <point x="570" y="135"/>
      <point x="584" y="314" type="curve"/>
      <point x="648" y="345" type="line"/>
      <point x="648" y="400" type="line"/>
      <point x="460" y="400" type="line"/>
      <point x="460" y="345" type="line"/>
      <point x="514" y="314" type="line"/>
    </contour>
  </outline>
</glyph>
<glyph name="plus" format="1">
  <advance width="582"/>
  <unicode hex="002B"/>
  <outline>
    <contour>
      <point x="64" y="309" type="line"/>
      <point x="64" y="239" type="line"/>
      <point x="518" y="239" type="line"/>
      <point x="518" y="309" type="line"/>
    </contour>
    <contour>
      <point x="324" y="501" type="line"/>
      <point x="258" y="501" type="line"/>
      <point x="258" y="47" type="line"/>
      <point x="324" y="47" type="line"/>
    </contour>
  </outline>
</glyph>
<glyph name="slash" format="1">
  <advance width="358"/>
  <unicode hex="002F"/>
  <outline>
    <contour>
      <point x="266" y="750" type="line"/>
      <point x="-2" y="-126" type="line"/>
      <point x="80" y="-126" type="line"/>
      <point x="348" y="750" type="line"/>
    </contour>
  </outline>
</glyph>
<glyph name="two" format="1">
  <advance width="615"/>
  <unicode hex="0032"/>
  <outline>
    <contour>
      <point x="565" y="0" type="line"/>
      <point x="565" y="170" type="line"/>
      <point x="508" y="170" type="line"/>
      <point x="480" y="50" type="line"/>
      <point x="514" y="70" type="line"/>
      <point x="103" y="70" type="line"/>
      <point x="109" y="46" type="line"/>
      <point x="216" y="197"/>
      <point x="530" y="160"/>
      <point x="530" y="381" type="curve" smooth="yes"/>
      <point x="530" y="512"/>
      <point x="463" y="563"/>
      <point x="301" y="563" type="curve" smooth="yes"/>
      <point x="142" y="563"/>
      <point x="40" y="497"/>
      <point x="40" y="406" type="curve" smooth="yes"/>
      <point x="40" y="354"/>
      <point x="71" y="326"/>
      <point x="113" y="326" type="curve" smooth="yes"/>
      <point x="142" y="326"/>
      <point x="167" y="339"/>
      <point x="177" y="360" type="curve"/>
      <point x="134" y="471" type="line"/>
      <point x="126" y="448" type="line"/>
      <point x="162" y="468"/>
      <point x="209" y="491"/>
      <point x="299" y="491" type="curve" smooth="yes"/>
      <point x="409" y="491"/>
      <point x="442" y="460"/>
      <point x="442" y="382" type="curve" smooth="yes"/>
      <point x="442" y="231"/>
      <point x="151" y="246"/>
      <point x="25" y="62" type="curve"/>
      <point x="25" y="0" type="line"/>
    </contour>
  </outline>
</glyph>
<glyph name="eight" format="1">
  <advance width="618"/>
  <unicode hex="0038"/>
  <outline>
    <contour>
      <point x="140" y="694"/>
      <point x="67" y="630"/>
      <point x="67" y="514" type="curve" smooth="yes"/>
      <point x="67" y="406"/>
      <point x="129" y="349"/>
      <point x="253" y="316" type="curve" smooth="yes"/>
      <point x="288" y="307"/>
      <point x="368" y="289"/>
      <point x="396" y="280" type="curve" smooth="yes"/>
      <point x="457" y="261"/>
      <point x="480" y="222"/>
      <point x="480" y="171" type="curve" smooth="yes"/>
      <point x="480" y="94"/>
      <point x="429" y="58"/>
      <point x="316" y="58" type="curve" smooth="yes"/>
      <point x="193" y="58"/>
      <point x="138" y="101"/>
      <point x="138" y="190" type="curve" smooth="yes"/>
      <point x="138" y="253"/>
      <point x="165" y="301"/>
      <point x="230" y="341" type="curve"/>
      <point x="171" y="367" type="line"/>
      <point x="82" y="320"/>
      <point x="50" y="256"/>
      <point x="50" y="182" type="curve" smooth="yes"/>
      <point x="50" y="54"/>
      <point x="145" y="-14"/>
      <point x="317" y="-14" type="curve" smooth="yes"/>
      <point x="498" y="-14"/>
      <point x="568" y="61"/>
      <point x="568" y="180" type="curve" smooth="yes"/>
      <point x="568" y="255"/>
      <point x="540" y="330"/>
      <point x="394" y="369" type="curve" smooth="yes"/>
      <point x="364" y="377"/>
      <point x="287" y="395"/>
      <point x="253" y="405" type="curve" smooth="yes"/>
      <point x="187" y="425"/>
      <point x="155" y="454"/>
      <point x="155" y="520" type="curve" smooth="yes"/>
      <point x="155" y="594"/>
      <point x="197" y="622"/>
      <point x="302" y="622" type="curve" smooth="yes"/>
      <point x="418" y="622"/>
      <point x="463" y="588"/>
      <point x="463" y="497" type="curve" smooth="yes"/>
      <point x="463" y="443"/>
      <point x="447" y="398"/>
      <point x="387" y="353" type="curve"/>
      <point x="443" y="329" type="line"/>
      <point x="513" y="367"/>
      <point x="551" y="429"/>
      <point x="551" y="507" type="curve" smooth="yes"/>
      <point x="551" y="614"/>
      <point x="479" y="694"/>
      <point x="300" y="694" type="curve" smooth="yes"/>
    </contour>
  </outline>
</glyph>
<glyph name="M" format="1">
  <advance width="938"/>
  <unicode hex="004D"/>
  <outline>
    <contour>
      <point x="676" y="680" type="line"/>
      <point x="464" y="181" type="line"/>
      <point x="478" y="181" type="line"/>
      <point x="266" y="680" type="line"/>
      <point x="55" y="680" type="line"/>
      <point x="55" y="623" type="line"/>
      <point x="129" y="594" type="line"/>
      <point x="129" y="85" type="line"/>
      <point x="55" y="55" type="line"/>
      <point x="55" y="0" type="line"/>
      <point x="270" y="0" type="line"/>
      <point x="270" y="55" type="line"/>
      <point x="201" y="85" type="line"/>
      <point x="201" y="630" type="line"/>
      <point x="194" y="630" type="line"/>
      <point x="429" y="85" type="line"/>
      <point x="496" y="85" type="line"/>
      <point x="730" y="630" type="line"/>
      <point x="723" y="630" type="line"/>
      <point x="723" y="85" type="line"/>
      <point x="654" y="55" type="line"/>
      <point x="654" y="0" type="line"/>
      <point x="883" y="0" type="line"/>
      <point x="883" y="55" type="line"/>
      <point x="809" y="85" type="line"/>
      <point x="809" y="594" type="line"/>
      <point x="883" y="623" type="line"/>
      <point x="883" y="680" type="line"/>
    </contour>
  </outline>
</glyph>
<glyph name="R" format="1">
  <advance width="728"/>
  <unicode hex="0052"/>
  <outline>
    <contour>
      <point x="374" y="303" type="line"/>
      <point x="576" y="0" type="line"/>
      <point x="691" y="0" type="line"/>
      <point x="691" y="55" type="line"/>
      <point x="623" y="85" type="line"/>
      <point x="475" y="303" type="line"/>
    </contour>
    <contour>
      <point x="580" y="282"/>
      <point x="651" y="350"/>
      <point x="651" y="481" type="curve" smooth="yes"/>
      <point x="651" y="612"/>
      <point x="583" y="680"/>
      <point x="454" y="680" type="curve" smooth="yes"/>
      <point x="55" y="680" type="line"/>
      <point x="55" y="623" type="line"/>
      <point x="129" y="594" type="line"/>
      <point x="129" y="86" type="line"/>
      <point x="55" y="55" type="line"/>
      <point x="55" y="0" type="line"/>
      <point x="289" y="0" type="line"/>
      <point x="289" y="55" type="line"/>
      <point x="215" y="86" type="line"/>
      <point x="215" y="282" type="line"/>
      <point x="445" y="282" type="line" smooth="yes"/>
    </contour>
    <contour>
      <point x="215" y="354" type="line"/>
      <point x="215" y="608" type="line"/>
      <point x="446" y="608" type="line" smooth="yes"/>
      <point x="526" y="608"/>
      <point x="561" y="571"/>
      <point x="561" y="481" type="curve" smooth="yes"/>
      <point x="561" y="391"/>
      <point x="526" y="354"/>
      <point x="436" y="354" type="curve" smooth="yes"/>
    </contour>
    <contour>
      <point x="373" y="680" type="move" name="top"/>
    </contour>
    <contour>
      <point x="433" y="0" type="move" name="bottom"/>
    </contour>
  </outline>
</glyph>
<glyph name="bracketleft" format="1">
  <advance width="395"/>
  <unicode hex="005B"/>
  <outline>
    <contour>
      <point x="109" y="716" type="line"/>
      <point x="109" y="-224" type="line"/>
      <point x="355" y="-224" type="line"/>
      <point x="355" y="-152" type="line"/>
      <point x="195" y="-152" type="line"/>
      <point x="195" y="644" type="line"/>
      <point x="355" y="644" type="line"/>
      <point x="355" y="716" type="line"/>
    </contour>
  </outline>
</glyph>
<glyph name="g" format="1">
  <advance width="566"/>
  <unicode hex="0067"/>
  <outline>
    <contour>
      <point x="131" y="516"/>
      <point x="47" y="457"/>
      <point x="47" y="334" type="curve" smooth="yes"/>
      <point x="47" y="210"/>
      <point x="133" y="156"/>
      <point x="268" y="156" type="curve" smooth="yes"/>
      <point x="402" y="156"/>
      <point x="486" y="210"/>
      <point x="486" y="332" type="curve" smooth="yes"/>
      <point x="486" y="455"/>
      <point x="401" y="516"/>
      <point x="265" y="516" type="curve" smooth="yes"/>
    </contour>
    <contour>
      <point x="379" y="451"/>
      <point x="402" y="414"/>
      <point x="402" y="336" type="curve" smooth="yes"/>
      <point x="402" y="258"/>
      <point x="379" y="221"/>
      <point x="266" y="221" type="curve" smooth="yes"/>
      <point x="153" y="221"/>
      <point x="130" y="257"/>
      <point x="130" y="335" type="curve" smooth="yes"/>
      <point x="130" y="413"/>
      <point x="153" y="451"/>
      <point x="266" y="451" type="curve" smooth="yes"/>
    </contour>
    <contour>
      <point x="541" y="445" type="line"/>
      <point x="541" y="502" type="line"/>
      <point x="334" y="502" type="line"/>
      <point x="453" y="417" type="line"/>
    </contour>
    <contour>
      <point x="61" y="199"/>
      <point x="37" y="165"/>
      <point x="37" y="117" type="curve" smooth="yes"/>
      <point x="37" y="73"/>
      <point x="57" y="33"/>
      <point x="114" y="18" type="curve"/>
      <point x="114" y="28" type="line"/>
      <point x="51" y="16"/>
      <point x="22" y="-24"/>
      <point x="22" y="-79" type="curve" smooth="yes"/>
      <point x="22" y="-196"/>
      <point x="141" y="-234"/>
      <point x="280" y="-234" type="curve" smooth="yes"/>
      <point x="459" y="-234"/>
      <point x="541" y="-179"/>
      <point x="541" y="-56" type="curve" smooth="yes"/>
      <point x="541" y="35"/>
      <point x="498" y="78"/>
      <point x="388" y="78" type="curve" smooth="yes"/>
      <point x="204" y="78" type="line" smooth="yes"/>
      <point x="134" y="78"/>
      <point x="110" y="95"/>
      <point x="110" y="131" type="curve" smooth="yes"/>
      <point x="110" y="157"/>
      <point x="123" y="181"/>
      <point x="157" y="197" type="curve"/>
      <point x="113" y="217" type="line"/>
    </contour>
    <contour>
      <point x="440" y="0"/>
      <point x="458" y="-18"/>
      <point x="458" y="-71" type="curve" smooth="yes"/>
      <point x="458" y="-140"/>
      <point x="426" y="-167"/>
      <point x="285" y="-167" type="curve" smooth="yes"/>
      <point x="149" y="-167"/>
      <point x="100" y="-136"/>
      <point x="100" y="-69" type="curve" smooth="yes"/>
      <point x="100" y="-24"/>
      <point x="124" y="0"/>
      <point x="169" y="0" type="curve" smooth="yes"/>
      <point x="381" y="0" type="line" smooth="yes"/>
    </contour>
    <contour>
      <point x="294" y="502" type="move" name="top"/>
    </contour>
  </outline>
</glyph>
<glyph name="l" format="1">
  <advance width="301"/>
  <unicode hex="006C"/>
  <outline>
    <contour>
      <point x="46" y="710" type="line"/>
      <point x="46" y="653" type="line"/>
      <point x="114" y="625" type="line"/>
      <point x="114" y="85" type="line"/>
      <point x="46" y="55" type="line"/>
      <point x="46" y="0" type="line"/>
      <point x="266" y="0" type="line"/>
      <point x="266" y="55" type="line"/>
      <point x="198" y="85" type="line"/>
      <point x="198" y="710" type="line"/>
    </contour>
    <contour>
      <point x="156" y="680" type="move" name="top"/>
    </contour>
    <contour>
      <point x="156" y="0" type="move" name="bottom"/>
    </contour>
    <contour>
      <point x="281" y="502" type="move" name="topright"/>
    </contour>
  </outline>
</glyph>
<glyph name="bar" format="1">
  <advance width="500"/>
  <unicode hex="007C"/>
  <outline>
    <contour>
      <point x="208" y="798" type="line"/>
      <point x="208" y="-118" type="line"/>
      <point x="292" y="-118" type="line"/>
      <point x="292" y="798" type="line"/>
    </contour>
  </outline>
</glyph>
<glyph name="brokenbar" format="1">
  <advance width="500"/>
  <unicode hex="00A6"/>
  <outline>
    <contour>
      <point x="208" y="798" type="line"/>
      <point x="208" y="405" type="line"/>
      <point x="292" y="405" type="line"/>
      <point x="292" y="798" type="line"/>
    </contour>
    <contour>
      <point x="208" y="275" type="line"/>
      <point x="208" y="-118" type="line"/>
      <point x="292" y="-118" type="line"/>
      <point x="292" y="275" type="line"/>
    </contour>
  </outline>
</glyph>
<glyph name="copyright" format="1">
  <advance width="798"/>
  <unicode hex="00A9"/>
  <outline>
    <contour>
      <point x="606" y="-12"/>
      <point x="756" y="102"/>
      <point x="756" y="340" type="curve" smooth="yes"/>
      <point x="756" y="578"/>
      <point x="606" y="692"/>
      <point x="399" y="692" type="curve" smooth="yes"/>
      <point x="192" y="692"/>
      <point x="42" y="578"/>
      <point x="42" y="340" type="curve" smooth="yes"/>
      <point x="42" y="102"/>
      <point x="192" y="-12"/>
      <point x="399" y="-12" type="curve" smooth="yes"/>
    </contour>
    <contour>
      <point x="458" y="149"/>
      <point x="509" y="157"/>
      <point x="534" y="169" type="curve"/>
      <point x="534" y="229" type="line"/>
      <point x="495" y="216"/>
      <point x="465" y="212"/>
      <point x="418" y="212" type="curve" smooth="yes"/>
      <point x="341" y="212"/>
      <point x="293" y="232"/>
      <point x="293" y="339" type="curve" smooth="yes"/>
      <point x="293" y="436"/>
      <point x="320" y="468"/>
      <point x="412" y="468" type="curve" smooth="yes"/>
      <point x="443" y="468"/>
      <point x="469" y="465"/>
      <point x="492" y="458" type="curve"/>
      <point x="458" y="500" type="line"/>
      <point x="474" y="391" type="line"/>
      <point x="534" y="391" type="line"/>
      <point x="534" y="515" type="line"/>
      <point x="494" y="527"/>
      <point x="454" y="531"/>
      <point x="422" y="531" type="curve" smooth="yes"/>
      <point x="284" y="531"/>
      <point x="223" y="468"/>
      <point x="223" y="339" type="curve" smooth="yes"/>
      <point x="223" y="190"/>
      <point x="302" y="149"/>
      <point x="413" y="149" type="curve" smooth="yes"/>
    </contour>
    <contour>
      <point x="222" y="38"/>
      <point x="96" y="131"/>
      <point x="96" y="340" type="curve" smooth="yes"/>
      <point x="96" y="549"/>
      <point x="222" y="642"/>
      <point x="399" y="642" type="curve" smooth="yes"/>
      <point x="576" y="642"/>
      <point x="702" y="549"/>
      <point x="702" y="340" type="curve" smooth="yes"/>
      <point x="702" y="131"/>
      <point x="576" y="38"/>
      <point x="399" y="38" type="curve" smooth="yes"/>
    </contour>
    <contour>
      <point x="261" y="0" type="move" name="bottom"/>
    </contour>
  </outline>
</glyph>
<glyph name="macron" format="1">
  <advance width="500"/>
  <unicode hex="00AF"/>
  <outline>
    <contour>
      <point x="90" y="684" type="line"/>
      <point x="90" y="612" type="line"/>
      <point x="410" y="612" type="line"/>
      <point x="410" y="684" type="line"/>
    </contour>
    <contour>
      <point x="250" y="502" type="move" name="_top"/>
    </contour>
  </outline>
</glyph>
<glyph name="degree" format="1">
  <advance width="430"/>
  <unicode hex="00B0"/>
  <outline>
    <contour>
      <point x="113" y="692"/>
      <point x="35" y="614"/>
      <point x="35" y="512" type="curve" smooth="yes"/>
      <point x="35" y="410"/>
      <point x="113" y="332"/>
      <point x="215" y="332" type="curve" smooth="yes"/>
      <point x="317" y="332"/>
      <point x="395" y="410"/>
      <point x="395" y="512" type="curve" smooth="yes"/>
      <point x="395" y="614"/>
      <point x="317" y="692"/>
      <point x="215" y="692" type="curve" smooth="yes"/>
    </contour>
    <contour>
      <point x="274" y="622"/>
      <point x="319" y="578"/>
      <point x="319" y="512" type="curve" smooth="yes"/>
      <point x="319" y="446"/>
      <point x="274" y="402"/>
      <point x="215" y="402" type="curve" smooth="yes"/>
      <point x="157" y="402"/>
      <point x="111" y="446"/>
      <point x="111" y="512" type="curve" smooth="yes"/>
      <point x="111" y="578"/>
      <point x="157" y="622"/>
      <point x="215" y="622" type="curve" smooth="yes"/>
    </contour>
  </outline>
</glyph>
<glyph name="AE" format="1">
  <advance width="1027"/>
  <unicode hex="00C6"/>
  <outline>
    <contour>
      <point x="526" y="225" type="line"/>
      <point x="526" y="296" type="line"/>
      <point x="196" y="296" type="line"/>
      <point x="196" y="225" type="line"/>
    </contour>
    <contour>
      <point x="54" y="85" type="line"/>
      <point x="-10" y="55" type="line"/>
      <point x="-10" y="0" type="line"/>
      <point x="191" y="0" type="line"/>
      <point x="191" y="55" type="line"/>
      <point x="137" y="82" type="line"/>
      <point x="479" y="608" type="line"/>
      <point x="489" y="608" type="line"/>
      <point x="489" y="85" type="line"/>
      <point x="415" y="55" type="line"/>
      <point x="415" y="0" type="line"/>
      <point x="975" y="0" type="line"/>
      <point x="975" y="187" type="line"/>
      <point x="916" y="187" type="line"/>
      <point x="890" y="72" type="line"/>
      <point x="575" y="72" type="line"/>
      <point x="575" y="306" type="line"/>
      <point x="749" y="306" type="line"/>
      <point x="764" y="229" type="line"/>
      <point x="819" y="229" type="line"/>
      <point x="819" y="455" type="line"/>
      <point x="764" y="455" type="line"/>
      <point x="749" y="378" type="line"/>
      <point x="575" y="378" type="line"/>
      <point x="575" y="608" type="line"/>
      <point x="890" y="608" type="line"/>
      <point x="916" y="503" type="line"/>
      <point x="975" y="503" type="line"/>
      <point x="975" y="680" type="line"/>
      <point x="308" y="680" type="line"/>
      <point x="308" y="623" type="line"/>
      <point x="400" y="587" type="line"/>
      <point x="391" y="611" type="line"/>
    </contour>
    <contour>
      <point x="532" y="680" type="move" name="top"/>
    </contour>
  </outline>
</glyph>
<glyph name="germandbls" format="1">
  <advance width="590"/>
  <unicode hex="00DF"/>
  <outline>
    <contour>
      <point x="194" y="718"/>
      <point x="114" y="644"/>
      <point x="114" y="522" type="curve" smooth="yes"/>
      <point x="114" y="502" type="line"/>
      <point x="46" y="488" type="line"/>
      <point x="46" y="430" type="line"/>
      <point x="114" y="430" type="line"/>
      <point x="114" y="85" type="line"/>
      <point x="46" y="55" type="line"/>
      <point x="46" y="0" type="line"/>
      <point x="198" y="0" type="line"/>
      <point x="198" y="520" type="line" smooth="yes"/>
      <point x="198" y="603"/>
      <point x="240" y="646"/>
      <point x="317" y="646" type="curve" smooth="yes"/>
      <point x="387" y="646"/>
      <point x="421" y="610"/>
      <point x="421" y="543" type="curve" smooth="yes"/>
      <point x="421" y="473"/>
      <point x="384" y="437"/>
      <point x="314" y="437" type="curve"/>
      <point x="314" y="365" type="line"/>
      <point x="429" y="365"/>
      <point x="472" y="325"/>
      <point x="472" y="218" type="curve" smooth="yes"/>
      <point x="472" y="113"/>
      <point x="430" y="74"/>
      <point x="319" y="74" type="curve" smooth="yes"/>
      <point x="289" y="74" type="line"/>
      <point x="289" y="0" type="line"/>
      <point x="324" y="0" type="line" smooth="yes"/>
      <point x="488" y="0"/>
      <point x="560" y="68"/>
      <point x="560" y="221" type="curve" smooth="yes"/>
      <point x="560" y="342"/>
      <point x="513" y="406"/>
      <point x="401" y="418" type="curve"/>
      <point x="401" y="420" type="line"/>
      <point x="464" y="432"/>
      <point x="503" y="486"/>
      <point x="503" y="560" type="curve" smooth="yes"/>
      <point x="503" y="658"/>
      <point x="434" y="718"/>
      <point x="320" y="718" type="curve" smooth="yes"/>
    </contour>
  </outline>
</glyph>
<glyph name="thorn" format="1">
  <advance width="625"/>
  <unicode hex="00FE"/>
  <outline>
    <contour>
      <point x="36" y="710" type="line"/>
      <point x="36" y="653" type="line"/>
      <point x="104" y="625" type="line"/>
      <point x="104" y="-139" type="line"/>
      <point x="36" y="-169" type="line"/>
      <point x="36" y="-224" type="line"/>
      <point x="266" y="-224" type="line"/>
      <point x="266" y="-169" type="line"/>
      <point x="188" y="-139" type="line"/>
      <point x="188" y="90" type="line"/>
      <point x="165" y="90" type="line"/>
      <point x="224" y="21"/>
      <point x="289" y="-10"/>
      <point x="380" y="-10" type="curve" smooth="yes"/>
      <point x="510" y="-10"/>
      <point x="579" y="47"/>
      <point x="579" y="249" type="curve" smooth="yes"/>
      <point x="579" y="446"/>
      <point x="497" y="516"/>
      <point x="371" y="516" type="curve" smooth="yes"/>
      <point x="308" y="516"/>
      <point x="246" y="499"/>
      <point x="169" y="449" type="curve"/>
      <point x="188" y="449" type="line"/>
      <point x="188" y="710" type="line"/>
    </contour>
    <contour>
      <point x="454" y="443"/>
      <point x="491" y="374"/>
      <point x="491" y="241" type="curve" smooth="yes"/>
      <point x="491" y="101"/>
      <point x="450" y="63"/>
      <point x="363" y="63" type="curve" smooth="yes"/>
      <point x="297" y="63"/>
      <point x="241" y="86"/>
      <point x="188" y="128" type="curve"/>
      <point x="188" y="402" type="line"/>
      <point x="252" y="425"/>
      <point x="299" y="443"/>
      <point x="351" y="443" type="curve" smooth="yes"/>
    </contour>
  </outline>
</glyph>
<glyph name="dcroat" format="1">
  <advance width="624"/>
  <unicode hex="0111"/>
  <outline>
    <contour>
      <point x="254" y="540" type="line"/>
      <point x="571" y="540" type="line"/>
      <point x="571" y="600" type="line"/>
      <point x="254" y="600" type="line"/>
    </contour>
    <contour>
      <point x="369" y="710" type="line"/>
      <point x="369" y="653" type="line"/>
      <point x="437" y="639" type="line"/>
      <point x="437" y="441" type="line"/>
      <point x="447" y="445" type="line"/>
      <point x="376" y="489"/>
      <point x="317" y="506"/>
      <point x="254" y="506" type="curve" smooth="yes"/>
      <point x="128" y="506"/>
      <point x="46" y="436"/>
      <point x="46" y="249" type="curve" smooth="yes"/>
      <point x="46" y="47"/>
      <point x="115" y="-10"/>
      <point x="245" y="-10" type="curve" smooth="yes"/>
      <point x="336" y="-10"/>
      <point x="401" y="21"/>
      <point x="460" y="90" type="curve"/>
      <point x="437" y="90" type="line"/>
      <point x="470" y="0" type="line"/>
      <point x="589" y="0" type="line"/>
      <point x="589" y="55" type="line"/>
      <point x="521" y="85" type="line"/>
      <point x="521" y="710" type="line"/>
    </contour>
    <contour>
      <point x="326" y="433"/>
      <point x="373" y="415"/>
      <point x="437" y="392" type="curve"/>
      <point x="437" y="128" type="line"/>
      <point x="384" y="86"/>
      <point x="328" y="63"/>
      <point x="262" y="63" type="curve" smooth="yes"/>
      <point x="175" y="63"/>
      <point x="134" y="101"/>
      <point x="134" y="241" type="curve" smooth="yes"/>
      <point x="134" y="364"/>
      <point x="171" y="433"/>
      <point x="274" y="433" type="curve" smooth="yes"/>
    </contour>
    <contour>
      <point x="312" y="251" type="move" name="center"/>
    </contour>
    <contour>
      <point x="479" y="680" type="move" name="top"/>
    </contour>
    <contour>
      <point x="604" y="502" type="move" name="topright"/>
    </contour>
  </outline>
</glyph>
<glyph name="Lcaron" format="1">
  <advance width="643"/>
  <unicode hex="013D"/>
  <outline>
    <contour>
      <point x="447" y="470" type="line"/>
      <point x="513" y="470" type="line"/>
      <point x="545" y="680" type="line"/>
      <point x="447" y="680" type="line"/>
    </contour>
    <component base="L"/>
  </outline>
</glyph>
<glyph name="florin" format="1">
  <advance width="517"/>
  <unicode hex="0192"/>
  <outline>
    <contour>
      <point x="264" y="563"/>
      <point x="216" y="509"/>
      <point x="181" y="344" type="curve"/>
      <point x="59" y="332" type="line"/>
      <point x="47" y="274" type="line"/>
      <point x="166" y="274" type="line"/>
      <point x="98" y="-43" type="line" smooth="yes"/>
      <point x="80" y="-128"/>
      <point x="61" y="-152"/>
      <point x="12" y="-152" type="curve"/>
      <point x="-18" y="-71" type="line"/>
      <point x="-81" y="-71"/>
      <point x="-110" y="-95"/>
      <point x="-110" y="-143" type="curve" smooth="yes"/>
      <point x="-110" y="-198"/>
      <point x="-67" y="-224"/>
      <point x="-3" y="-224" type="curve" smooth="yes"/>
      <point x="94" y="-224"/>
      <point x="152" y="-175"/>
      <point x="180" y="-43" type="curve" smooth="yes"/>
      <point x="248" y="274" type="line"/>
      <point x="398" y="274" type="line"/>
      <point x="414" y="344" type="line"/>
      <point x="263" y="344" type="line"/>
      <point x="288" y="463"/>
      <point x="319" y="501"/>
      <point x="387" y="501" type="curve"/>
      <point x="421" y="427" type="line"/>
      <point x="475" y="427"/>
      <point x="507" y="451"/>
      <point x="507" y="495" type="curve" smooth="yes"/>
      <point x="507" y="552"/>
      <point x="474" y="563"/>
      <point x="409" y="563" type="curve" smooth="yes"/>
    </contour>
  </outline>
</glyph>
<glyph name="commaaccent" format="1">
  <advance width="500"/>
  <unicode hex="0326"/>
  <outline>
    <contour>
      <point x="209" y="-272" type="line"/>
      <point x="269" y="-272" type="line"/>
      <point x="299" y="-65" type="line"/>
      <point x="209" y="-65" type="line"/>
    </contour>
    <contour>
      <point x="250" y="0" type="move" name="_bottom"/>
    </contour>
  </outline>
</glyph>
<glyph name="candraBindu-deva" format="1">
  <advance width="250"/>
  <unicode hex="0901"/>
  <note>
	dCandrabindu
  </note>
  <outline>
    <component base="anusvara-deva" yOffset="120"/>
    <component base="eCandraMatra-deva" xOffset="5"/>
    <contour>
      <point x="130" y="680" type="move" name="_top"/>
    </contour>
  </outline>
</glyph>
<glyph name="anusvara-deva" format="1">
  <advance width="250"/>
  <unicode hex="0902"/>
  <outline>
    <contour>
      <point x="91" y="856"/>
      <point x="67" y="834"/>
      <point x="67" y="793" type="curve" smooth="yes"/>
      <point x="67" y="752"/>
      <point x="91" y="730"/>
      <point x="130" y="730" type="curve" smooth="yes"/>
      <point x="169" y="730"/>
      <point x="193" y="752"/>
      <point x="193" y="793" type="curve" smooth="yes"/>
      <point x="193" y="834"/>
      <point x="169" y="856"/>
      <point x="130" y="856" type="curve" smooth="yes"/>
    </contour>
    <contour>
      <point x="130" y="680" type="move" name="_top"/>
    </contour>
  </outline>
</glyph>
<glyph name="tta-deva" format="1">
  <advance width="528"/>
  <unicode hex="091F"/>
  <outline>
    <contour>
      <point x="373" y="25"/>
      <point x="431" y="38"/>
      <point x="479" y="60" type="curve"/>
      <point x="479" y="142" type="line"/>
      <point x="430" y="119"/>
      <point x="371" y="107"/>
      <point x="303" y="107" type="curve" smooth="yes"/>
      <point x="178" y="107"/>
      <point x="118" y="148"/>
      <point x="117" y="252" type="curve" smooth="yes"/>
      <point x="116" y="366"/>
      <point x="184" y="396"/>
      <point x="354" y="396" type="curve" smooth="yes"/>
      <point x="439" y="396" type="line"/>
      <point x="439" y="614" type="line"/>
      <point x="371" y="614" type="line"/>
      <point x="371" y="474" type="line"/>
      <point x="344" y="474" type="line" smooth="yes"/>
      <point x="144" y="474"/>
      <point x="45" y="417"/>
      <point x="45" y="250" type="curve" smooth="yes"/>
      <point x="45" y="82"/>
      <point x="145" y="25"/>
      <point x="299" y="25" type="curve" smooth="yes"/>
    </contour>
    <contour>
      <point x="538" y="604" type="line"/>
      <point x="538" y="680" type="line"/>
      <point x="-10" y="680" type="line"/>
      <point x="-10" y="604" type="line"/>
    </contour>
    <contour>
      <point x="304" y="-120" type="move" name="nukta"/>
    </contour>
    <contour>
      <point x="304" y="0" type="move" name="bottom"/>
    </contour>
    <contour>
      <point x="404" y="680" type="move" name="top"/>
    </contour>
  </outline>
</glyph>
<glyph name="iiMatra-deva" format="1">
  <advance width="260"/>
  <unicode hex="0940"/>
  <outline>
    <contour>
      <point x="-166" y="780" type="line"/>
      <point x="-98" y="780" type="line"/>
      <point x="-98" y="798" type="line" smooth="yes"/>
      <point x="-98" y="842"/>
      <point x="-75" y="872"/>
      <point x="-9" y="872" type="curve" smooth="yes"/>
      <point x="66" y="872"/>
      <point x="96" y="833"/>
      <point x="96" y="732" type="curve" smooth="yes"/>
      <point x="96" y="670" type="line"/>
      <point x="164" y="670" type="line"/>
      <point x="164" y="747" type="line" smooth="yes"/>
      <point x="164" y="863"/>
      <point x="131" y="954"/>
      <point x="-6" y="954" type="curve" smooth="yes"/>
      <point x="-115" y="954"/>
      <point x="-166" y="896"/>
      <point x="-166" y="803" type="curve" smooth="yes"/>
    </contour>
    <component base="aaMatra-deva"/>
    <contour>
      <point x="-131" y="680" type="move" name="iimatra"/>
    </contour>
    <contour>
      <point x="131" y="0" type="move" name="bottom"/>
    </contour>
    <contour>
      <point x="131" y="680" type="move" name="top"/>
    </contour>
  </outline>
</glyph>
<glyph name="aiMatra-deva" format="1">
  <advance width="250"/>
  <unicode hex="0948"/>
  <outline>
    <contour>
      <point x="72" y="845"/>
      <point x="1" y="868"/>
      <point x="-165" y="868" type="curve"/>
      <point x="-165" y="790" type="line"/>
      <point x="49" y="790"/>
      <point x="96" y="773"/>
      <point x="96" y="688" type="curve"/>
      <point x="106" y="688" type="line"/>
      <point x="106" y="799" type="line"/>
    </contour>
    <contour>
      <point x="164" y="987"/>
      <point x="85" y="1041"/>
      <point x="-165" y="1041" type="curve"/>
      <point x="-165" y="963" type="line"/>
      <point x="40" y="963"/>
      <point x="96" y="940"/>
      <point x="96" y="841" type="curve" smooth="yes"/>
      <point x="96" y="670" type="line"/>
      <point x="164" y="670" type="line"/>
      <point x="164" y="835" type="line" smooth="yes"/>
    </contour>
    <contour>
      <point x="130" y="680" type="move" name="_top"/>
    </contour>
  </outline>
</glyph>
<glyph name="rrVocalic-deva" format="1">
  <advance width="758"/>
  <unicode hex="0960"/>
  <outline>
    <contour>
      <point x="419" y="0" type="line"/>
      <point x="419" y="614" type="line"/>
      <point x="351" y="614" type="line"/>
      <point x="351" y="0" type="line"/>
    </contour>
    <contour>
      <point x="768" y="604" type="line"/>
      <point x="768" y="680" type="line"/>
      <point x="-10" y="680" type="line"/>
      <point x="-9" y="604" type="line"/>
    </contour>
    <contour>
      <point x="11" y="1" type="line"/>
      <point x="11" y="0" type="line"/>
      <point x="120" y="0" type="line"/>
      <point x="577" y="417" type="line"/>
      <point x="549" y="417" type="line"/>
      <point x="549" y="392" type="line" smooth="yes"/>
      <point x="549" y="341"/>
      <point x="577" y="297"/>
      <point x="623" y="291" type="curve"/>
      <point x="623" y="316" type="line"/>
      <point x="557" y="299"/>
      <point x="524" y="246"/>
      <point x="524" y="179" type="curve" smooth="yes"/>
      <point x="524" y="110"/>
      <point x="558" y="64"/>
      <point x="613" y="56" type="curve"/>
      <point x="578" y="40"/>
      <point x="549" y="7"/>
      <point x="549" y="-59" type="curve" smooth="yes"/>
      <point x="549" y="-150"/>
      <point x="603" y="-210"/>
      <point x="713" y="-210" type="curve" smooth="yes"/>
      <point x="738" y="-210"/>
      <point x="761" y="-207"/>
      <point x="793" y="-199" type="curve"/>
      <point x="793" y="-117" type="line"/>
      <point x="760" y="-124"/>
      <point x="736" y="-128"/>
      <point x="708" y="-128" type="curve" smooth="yes"/>
      <point x="650" y="-128"/>
      <point x="621" y="-111"/>
      <point x="621" y="-56" type="curve" smooth="yes"/>
      <point x="621" y="-8"/>
      <point x="643" y="21"/>
      <point x="706" y="21" type="curve" smooth="yes"/>
      <point x="768" y="21" type="line"/>
      <point x="768" y="99" type="line"/>
      <point x="678" y="99" type="line" smooth="yes"/>
      <point x="623" y="99"/>
      <point x="596" y="122"/>
      <point x="596" y="173" type="curve" smooth="yes"/>
      <point x="596" y="222"/>
      <point x="621" y="249"/>
      <point x="701" y="249" type="curve" smooth="yes"/>
      <point x="716" y="249"/>
      <point x="730" y="248"/>
      <point x="748" y="244" type="curve"/>
      <point x="748" y="322" type="line"/>
      <point x="728" y="327"/>
      <point x="717" y="327"/>
      <point x="688" y="327" type="curve" smooth="yes"/>
      <point x="634" y="327"/>
      <point x="617" y="355"/>
      <point x="617" y="409" type="curve" smooth="yes"/>
      <point x="617" y="501" type="line"/>
      <point x="562" y="501" type="line"/>
    </contour>
    <contour>
      <point x="322" y="249" type="line"/>
      <point x="165" y="472" type="line" smooth="yes"/>
      <point x="150" y="494"/>
      <point x="136" y="501"/>
      <point x="105" y="501" type="curve" smooth="yes"/>
      <point x="16" y="501" type="line"/>
      <point x="16" y="423" type="line"/>
      <point x="67" y="423" type="line" smooth="yes"/>
      <point x="102" y="423"/>
      <point x="108" y="419"/>
      <point x="129" y="391" type="curve" smooth="yes"/>
      <point x="270" y="204" type="line"/>
    </contour>
    <contour>
      <point x="386" y="680" type="move" name="top"/>
    </contour>
    <contour>
      <point x="386" y="0" type="move" name="bottom"/>
    </contour>
  </outline>
</glyph>
<glyph name="gga-deva" format="1">
  <advance width="586"/>
  <unicode hex="097B"/>
  <outline>
    <contour>
      <point x="21" y="26" type="line"/>
      <point x="21" y="-36" type="line"/>
      <point x="490" y="-36" type="line"/>
      <point x="490" y="26" type="line"/>
    </contour>
    <component base="ga-deva"/>
  </outline>
</glyph>
<glyph name="jja-deva" format="1">
  <advance width="699"/>
  <unicode hex="097C"/>
  <outline>
    <contour>
      <point x="603" y="-36" type="line"/>
      <point x="603" y="26" type="line"/>
      <point x="30" y="26" type="line"/>
      <point x="30" y="-36" type="line"/>
    </contour>
    <component base="ja-deva"/>
  </outline>
</glyph>
<glyph name="zerowidthjoiner" format="1">
  <advance width="250"/>
  <unicode hex="200D"/>
  <outline>
    <contour>
      <point x="32" y="546" type="line"/>
      <point x="148" y="662" type="line"/>
      <point x="116" y="694" type="line"/>
      <point x="0" y="579" type="line"/>
      <point x="-115" y="694" type="line"/>
      <point x="-148" y="661" type="line"/>
      <point x="-33" y="546" type="line"/>
      <point x="-146" y="433" type="line"/>
      <point x="-113" y="400" type="line"/>
      <point x="-24" y="493" type="line"/>
      <point x="-24" y="0" type="line"/>
      <point x="23" y="0" type="line"/>
      <point x="23" y="493" type="line"/>
      <point x="115" y="398" type="line"/>
      <point x="148" y="431" type="line"/>
    </contour>
  </outline>
</glyph>
<glyph name="perthousand" format="1">
  <advance width="1517"/>
  <unicode hex="2030"/>
  <outline>
    <contour>
      <point x="1180" y="415"/>
      <point x="1085" y="344"/>
      <point x="1085" y="202" type="curve" smooth="yes"/>
      <point x="1085" y="59"/>
      <point x="1180" y="-12"/>
      <point x="1286" y="-12" type="curve" smooth="yes"/>
      <point x="1395" y="-12"/>
      <point x="1487" y="59"/>
      <point x="1487" y="202" type="curve" smooth="yes"/>
      <point x="1487" y="344"/>
      <point x="1395" y="415"/>
      <point x="1286" y="415" type="curve" smooth="yes"/>
    </contour>
    <contour>
      <point x="1363" y="351"/>
      <point x="1409" y="315"/>
      <point x="1409" y="202" type="curve" smooth="yes"/>
      <point x="1409" y="88"/>
      <point x="1363" y="52"/>
      <point x="1286" y="52" type="curve" smooth="yes"/>
      <point x="1209" y="52"/>
      <point x="1163" y="88"/>
      <point x="1163" y="202" type="curve" smooth="yes"/>
      <point x="1163" y="315"/>
      <point x="1209" y="351"/>
      <point x="1286" y="351" type="curve" smooth="yes"/>
    </contour>
    <component base="percent"/>
  </outline>
</glyph>
<glyph name="guilsinglright" format="1">
  <advance width="235"/>
  <unicode hex="203A"/>
  <outline>
    <contour>
      <point x="20" y="452" type="line"/>
      <point x="127" y="261" type="line"/>
      <point x="20" y="70" type="line"/>
      <point x="107" y="70" type="line"/>
      <point x="213" y="251" type="line"/>
      <point x="213" y="272" type="line"/>
      <point x="112" y="452" type="line"/>
    </contour>
  </outline>
</glyph>
<glyph name="ruble" format="1">
  <advance width="607"/>
  <unicode hex="20BD"/>
  <outline>
    <contour>
      <point x="464" y="90" type="line"/>
      <point x="464" y="151" type="line"/>
      <point x="50" y="151" type="line"/>
      <point x="50" y="90" type="line"/>
    </contour>
    <contour>
      <point x="202" y="479" type="line"/>
      <point x="373" y="479" type="line" smooth="yes"/>
      <point x="442" y="479"/>
      <point x="464" y="461"/>
      <point x="464" y="394" type="curve" smooth="yes"/>
      <point x="464" y="329"/>
      <point x="442" y="311"/>
      <point x="373" y="311" type="curve" smooth="yes"/>
      <point x="202" y="311" type="line"/>
    </contour>
    <contour>
      <point x="50" y="492" type="line"/>
      <point x="118" y="464" type="line"/>
      <point x="118" y="0" type="line"/>
      <point x="202" y="0" type="line"/>
      <point x="202" y="241" type="line"/>
      <point x="387" y="241" type="line" smooth="yes"/>
      <point x="503" y="241"/>
      <point x="552" y="285"/>
      <point x="552" y="394" type="curve" smooth="yes"/>
      <point x="552" y="505"/>
      <point x="503" y="549"/>
      <point x="387" y="549" type="curve" smooth="yes"/>
      <point x="50" y="549" type="line"/>
    </contour>
  </outline>
</glyph>
<glyph name="radical" format="1">
  <advance width="604"/>
  <unicode hex="221A"/>
  <outline>
    <contour>
      <point x="526" y="680" type="line"/>
      <point x="304" y="105" type="line"/>
      <point x="318" y="105" type="line"/>
      <point x="201" y="419" type="line"/>
      <point x="35" y="419" type="line"/>
      <point x="35" y="349" type="line"/>
      <point x="150" y="349" type="line"/>
      <point x="287" y="0" type="line"/>
      <point x="336" y="0" type="line"/>
      <point x="604" y="680" type="line"/>
    </contour>
  </outline>
</glyph>
<glyph name="aiMatra_reph-deva" format="1">
  <advance width="250"/>
  <outline>
    <contour>
      <point x="164" y="774" type="line"/>
      <point x="164" y="834"/>
      <point x="183" y="858"/>
      <point x="252" y="858" type="curve" smooth="yes"/>
      <point x="266" y="858"/>
      <point x="284" y="857"/>
      <point x="304" y="853" type="curve"/>
      <point x="304" y="936" type="line"/>
      <point x="287" y="939"/>
      <point x="271" y="940"/>
      <point x="256" y="940" type="curve" smooth="yes"/>
      <point x="150" y="940"/>
      <point x="110" y="891"/>
      <point x="110" y="774" type="curve"/>
    </contour>
    <component base="aiMatra-deva"/>
    <contour>
      <point x="130" y="680" type="move" name="_top"/>
    </contour>
  </outline>
</glyph>
<glyph name="b_na-deva" format="1">
  <advance width="594"/>
  <outline>
    <contour>
      <point x="189" y="-16" type="line"/>
      <point x="444" y="145" type="line"/>
      <point x="317" y="145" type="line"/>
      <point x="139" y="32" type="line" smooth="yes"/>
      <point x="111" y="14"/>
      <point x="89" y="-13"/>
      <point x="89" y="-50" type="curve" smooth="yes"/>
      <point x="89" y="-97"/>
      <point x="125" y="-140"/>
      <point x="170" y="-140" type="curve" smooth="yes"/>
      <point x="198" y="-140"/>
      <point x="226" y="-124"/>
      <point x="243" y="-104" type="curve"/>
      <point x="205" y="19" type="line"/>
    </contour>
    <component base="ba-deva"/>
  </outline>
</glyph>
<glyph name="bh_ra-deva" format="1">
  <advance width="442"/>
  <note>
	dBhR.half
  </note>
  <outline>
    <contour>
      <point x="298" y="0" type="line"/>
      <point x="562" y="289" type="line"/>
      <point x="562" y="339" type="line"/>
      <point x="218" y="339" type="line" smooth="yes"/>
      <point x="161" y="339"/>
      <point x="126" y="313"/>
      <point x="126" y="248" type="curve" smooth="yes"/>
      <point x="126" y="183"/>
      <point x="162" y="158"/>
      <point x="210" y="158" type="curve" smooth="yes"/>
      <point x="258" y="158"/>
      <point x="303" y="183"/>
      <point x="303" y="250" type="curve" smooth="yes"/>
      <point x="303" y="529" type="line" smooth="yes"/>
      <point x="303" y="636"/>
      <point x="258" y="688"/>
      <point x="165" y="688" type="curve" smooth="yes"/>
      <point x="78" y="688"/>
      <point x="35" y="643"/>
      <point x="35" y="554" type="curve" smooth="yes"/>
      <point x="35" y="465"/>
      <point x="78" y="425"/>
      <point x="157" y="425" type="curve"/>
      <point x="157" y="505" type="line"/>
      <point x="116" y="505"/>
      <point x="97" y="518"/>
      <point x="97" y="555" type="curve" smooth="yes"/>
      <point x="97" y="592"/>
      <point x="116" y="606"/>
      <point x="167" y="606" type="curve" smooth="yes"/>
      <point x="212" y="606"/>
      <point x="235" y="595"/>
      <point x="235" y="520" type="curve" smooth="yes"/>
      <point x="235" y="261" type="line"/>
      <point x="483" y="261" type="line"/>
      <point x="483" y="302" type="line"/>
      <point x="199" y="0" type="line"/>
    </contour>
    <contour>
      <point x="126" y="75" type="move" name="nukta"/>
    </contour>
  </outline>
</glyph>
<glyph name="candraBindu-deva.imatra" format="1">
  <advance width="250"/>
  <outline>
    <component base="candraBindu-deva" yOffset="154"/>
    <contour>
      <point x="130" y="680" type="move" name="_top"/>
    </contour>
  </outline>
</glyph>
<glyph name="candraBindu-deva.reph2" format="1">
  <advance width="250"/>
  <outline>
    <contour>
      <point x="93" y="917"/>
      <point x="74" y="899"/>
      <point x="74" y="866" type="curve" smooth="yes"/>
      <point x="74" y="834"/>
      <point x="93" y="816"/>
      <point x="125" y="816" type="curve" smooth="yes"/>
      <point x="157" y="816"/>
      <point x="176" y="834"/>
      <point x="176" y="866" type="curve" smooth="yes"/>
      <point x="176" y="899"/>
      <point x="157" y="917"/>
      <point x="125" y="917" type="curve" smooth="yes"/>
    </contour>
    <contour>
      <point x="211" y="720"/>
      <point x="249" y="756"/>
      <point x="249" y="829" type="curve"/>
      <point x="201" y="829" type="line"/>
      <point x="201" y="794"/>
      <point x="180" y="776"/>
      <point x="125" y="776" type="curve" smooth="yes"/>
      <point x="73" y="776"/>
      <point x="49" y="792"/>
      <point x="49" y="829" type="curve"/>
      <point x="1" y="829" type="line"/>
      <point x="1" y="758"/>
      <point x="37" y="720"/>
      <point x="125" y="720" type="curve" smooth="yes"/>
    </contour>
    <contour>
      <point x="-69" y="680" type="move" name="_top"/>
    </contour>
  </outline>
</glyph>
<glyph name="ch_la-deva.loclMAR" format="1">
  <advance width="588"/>
  <outline>
    <contour>
      <point x="442" y="-1" type="line"/>
      <point x="442" y="188" type="line"/>
      <point x="380" y="187" type="line"/>
      <point x="380" y="-2" type="line"/>
    </contour>
    <contour>
      <point x="239" y="-249" type="line"/>
      <point x="183" y="-249"/>
      <point x="161" y="-248"/>
      <point x="143" y="-235" type="curve" smooth="yes"/>
      <point x="118" y="-217"/>
      <point x="113" y="-187"/>
      <point x="113" y="-148" type="curve" smooth="yes"/>
      <point x="113" y="-74"/>
      <point x="131" y="-40"/>
      <point x="196" y="-40" type="curve" smooth="yes"/>
      <point x="251" y="-40"/>
      <point x="271" y="-65"/>
      <point x="271" y="-133" type="curve" smooth="yes"/>
      <point x="271" y="-163" type="line"/>
      <point x="333" y="-163" type="line"/>
      <point x="333" y="-133" type="line" smooth="yes"/>
      <point x="333" y="-65"/>
      <point x="353" y="-40"/>
      <point x="408" y="-40" type="curve" smooth="yes"/>
      <point x="473" y="-40"/>
      <point x="491" y="-74"/>
      <point x="491" y="-148" type="curve" smooth="yes"/>
      <point x="491" y="-187"/>
      <point x="486" y="-217"/>
      <point x="461" y="-235" type="curve" smooth="yes"/>
      <point x="443" y="-248"/>
      <point x="421" y="-249"/>
      <point x="365" y="-249" type="curve"/>
      <point x="365" y="-321" type="line"/>
      <point x="423" y="-321"/>
      <point x="464" y="-321"/>
      <point x="498" y="-298" type="curve" smooth="yes"/>
      <point x="535" y="-273"/>
      <point x="557" y="-225"/>
      <point x="557" y="-139" type="curve" smooth="yes"/>
      <point x="557" y="-28"/>
      <point x="520" y="36"/>
      <point x="414" y="36" type="curve" smooth="yes"/>
      <point x="354" y="36"/>
      <point x="319" y="16"/>
      <point x="302" y="-35" type="curve"/>
      <point x="285" y="16"/>
      <point x="250" y="36"/>
      <point x="190" y="36" type="curve" smooth="yes"/>
      <point x="84" y="36"/>
      <point x="47" y="-28"/>
      <point x="47" y="-139" type="curve" smooth="yes"/>
      <point x="47" y="-225"/>
      <point x="69" y="-273"/>
      <point x="106" y="-298" type="curve" smooth="yes"/>
      <point x="140" y="-321"/>
      <point x="181" y="-321"/>
      <point x="239" y="-321" type="curve"/>
    </contour>
    <component base="ch-deva.POST"/>
    <contour>
      <point x="47" y="-385" type="move" name="nukta"/>
    </contour>
    <contour>
      <point x="426" y="-294" type="move" name="bottom"/>
    </contour>
  </outline>
</glyph>
<glyph name="d_bh_ya-deva" format="1">
  <advance width="1163"/>
  <outline>
    <contour>
      <point x="999" y="614" type="line"/>
      <point x="999" y="0" type="line"/>
      <point x="1067" y="0" type="line"/>
      <point x="1067" y="614" type="line"/>
    </contour>
    <contour>
      <point x="776" y="179"/>
      <point x="704" y="193"/>
      <point x="681" y="258" type="curve"/>
      <point x="809" y="258"/>
      <point x="857" y="284"/>
      <point x="857" y="384" type="curve" smooth="yes"/>
      <point x="857" y="461"/>
      <point x="829" y="486"/>
      <point x="756" y="486" type="curve" smooth="yes"/>
      <point x="541" y="486" type="line"/>
      <point x="541" y="408" type="line"/>
      <point x="753" y="408" type="line" smooth="yes"/>
      <point x="773" y="408"/>
      <point x="783" y="402"/>
      <point x="783" y="375" type="curve" smooth="yes"/>
      <point x="783" y="337"/>
      <point x="762" y="330"/>
      <point x="651" y="330" type="curve" smooth="yes"/>
      <point x="611" y="330" type="line"/>
      <point x="611" y="320" type="line" smooth="yes"/>
      <point x="611" y="162"/>
      <point x="708" y="97"/>
      <point x="862" y="97" type="curve" smooth="yes"/>
      <point x="909" y="97"/>
      <point x="958" y="103"/>
      <point x="1009" y="125" type="curve"/>
      <point x="1009" y="199" type="line"/>
      <point x="965" y="185"/>
      <point x="919" y="179"/>
      <point x="862" y="179" type="curve" smooth="yes"/>
    </contour>
    <contour>
      <point x="639" y="680" type="line"/>
      <point x="639" y="604" type="line"/>
      <point x="1173" y="604" type="line"/>
      <point x="1173" y="680" type="line"/>
    </contour>
    <component base="d_bha-deva"/>
    <contour>
      <point x="1033" y="680" type="move" name="top"/>
    </contour>
    <contour>
      <point x="1033" y="0" type="move" name="bottom"/>
    </contour>
  </outline>
</glyph>
<glyph name="d_da-deva" format="1">
  <advance width="573"/>
  <outline>
    <contour>
      <point x="583" y="604" type="line"/>
      <point x="583" y="680" type="line"/>
      <point x="-10" y="680" type="line"/>
      <point x="-10" y="604" type="line"/>
    </contour>
    <contour>
      <point x="448" y="-105"/>
      <point x="524" y="-63"/>
      <point x="524" y="18" type="curve" smooth="yes"/>
      <point x="524" y="69"/>
      <point x="494" y="89"/>
      <point x="436" y="89" type="curve"/>
      <point x="391" y="-39" type="line"/>
      <point x="436" y="-39" type="line"/>
      <point x="436" y="-212" type="line"/>
      <point x="504" y="-212" type="line"/>
      <point x="504" y="0" type="line"/>
      <point x="438" y="10" type="line"/>
      <point x="415" y="-14"/>
      <point x="369" y="-23"/>
      <point x="301" y="-23" type="curve" smooth="yes"/>
      <point x="172" y="-23"/>
      <point x="132" y="10"/>
      <point x="132" y="96" type="curve" smooth="yes"/>
      <point x="132" y="176"/>
      <point x="167" y="209"/>
      <point x="273" y="209" type="curve" smooth="yes"/>
      <point x="441" y="209" type="line"/>
      <point x="441" y="287" type="line"/>
      <point x="211" y="288" type="line" smooth="yes"/>
      <point x="154" y="288"/>
      <point x="132" y="302"/>
      <point x="132" y="356" type="curve" smooth="yes"/>
      <point x="132" y="406"/>
      <point x="150" y="423"/>
      <point x="203" y="423" type="curve" smooth="yes"/>
      <point x="484" y="423" type="line"/>
      <point x="484" y="614" type="line"/>
      <point x="416" y="614" type="line"/>
      <point x="416" y="484" type="line"/>
      <point x="435" y="501" type="line"/>
      <point x="195" y="501" type="line" smooth="yes"/>
      <point x="101" y="501"/>
      <point x="60" y="456"/>
      <point x="60" y="363" type="curve" smooth="yes"/>
      <point x="60" y="287"/>
      <point x="88" y="250"/>
      <point x="154" y="234" type="curve"/>
      <point x="174" y="251" type="line"/>
      <point x="104" y="251"/>
      <point x="60" y="193"/>
      <point x="60" y="94" type="curve" smooth="yes"/>
      <point x="60" y="-54"/>
      <point x="158" y="-105"/>
      <point x="310" y="-105" type="curve" smooth="yes"/>
    </contour>
    <contour>
      <point x="96" y="-152" type="move" name="nukta"/>
    </contour>
    <contour>
      <point x="310" y="-160" type="move" name="bottom"/>
    </contour>
    <contour>
      <point x="450" y="680" type="move" name="top"/>
    </contour>
  </outline>
</glyph>
<glyph name="d_v_ya-deva" format="1">
  <advance width="1066"/>
  <outline>
    <contour>
      <point x="902" y="614" type="line"/>
      <point x="902" y="0" type="line"/>
      <point x="970" y="0" type="line"/>
      <point x="970" y="614" type="line"/>
    </contour>
    <contour>
      <point x="679" y="179"/>
      <point x="607" y="193"/>
      <point x="584" y="258" type="curve"/>
      <point x="712" y="258"/>
      <point x="760" y="284"/>
      <point x="760" y="384" type="curve" smooth="yes"/>
      <point x="760" y="461"/>
      <point x="732" y="486"/>
      <point x="659" y="486" type="curve" smooth="yes"/>
      <point x="444" y="486" type="line"/>
      <point x="444" y="408" type="line"/>
      <point x="656" y="408" type="line" smooth="yes"/>
      <point x="676" y="408"/>
      <point x="686" y="402"/>
      <point x="686" y="375" type="curve" smooth="yes"/>
      <point x="686" y="337"/>
      <point x="665" y="330"/>
      <point x="554" y="330" type="curve" smooth="yes"/>
      <point x="514" y="330" type="line"/>
      <point x="514" y="320" type="line" smooth="yes"/>
      <point x="514" y="162"/>
      <point x="611" y="97"/>
      <point x="765" y="97" type="curve" smooth="yes"/>
      <point x="812" y="97"/>
      <point x="861" y="103"/>
      <point x="912" y="125" type="curve"/>
      <point x="912" y="199" type="line"/>
      <point x="868" y="185"/>
      <point x="822" y="179"/>
      <point x="765" y="179" type="curve" smooth="yes"/>
    </contour>
    <contour>
      <point x="542" y="680" type="line"/>
      <point x="542" y="604" type="line"/>
      <point x="1076" y="604" type="line"/>
      <point x="1076" y="680" type="line"/>
    </contour>
    <component base="d_va-deva"/>
    <contour>
      <point x="936" y="680" type="move" name="top"/>
    </contour>
    <contour>
      <point x="936" y="0" type="move" name="bottom"/>
    </contour>
  </outline>
</glyph>
<glyph name="d_ya-deva" format="1">
  <advance width="621"/>
  <outline>
    <contour>
      <point x="457" y="614" type="line"/>
      <point x="457" y="0" type="line"/>
      <point x="525" y="0" type="line"/>
      <point x="525" y="614" type="line"/>
    </contour>
    <contour>
      <point x="-10" y="680" type="line"/>
      <point x="-10" y="604" type="line"/>
      <point x="631" y="604" type="line"/>
      <point x="631" y="680" type="line"/>
    </contour>
    <contour>
      <point x="173" y="122"/>
      <point x="127" y="147"/>
      <point x="127" y="207" type="curve" smooth="yes"/>
      <point x="127" y="241"/>
      <point x="142" y="258"/>
      <point x="175" y="258" type="curve" smooth="yes"/>
      <point x="304" y="258" type="line"/>
      <point x="304" y="336" type="line"/>
      <point x="184" y="337" type="line" smooth="yes"/>
      <point x="140" y="337"/>
      <point x="127" y="354"/>
      <point x="127" y="385" type="curve" smooth="yes"/>
      <point x="127" y="415"/>
      <point x="139" y="427"/>
      <point x="173" y="427" type="curve" smooth="yes"/>
      <point x="339" y="427" type="line"/>
      <point x="339" y="614" type="line"/>
      <point x="271" y="614" type="line"/>
      <point x="271" y="505" type="line"/>
      <point x="165" y="505" type="line" smooth="yes"/>
      <point x="90" y="505"/>
      <point x="55" y="472"/>
      <point x="55" y="403" type="curve" smooth="yes"/>
      <point x="55" y="340"/>
      <point x="84" y="303"/>
      <point x="135" y="292" type="curve"/>
      <point x="135" y="297" type="line"/>
      <point x="83" y="297"/>
      <point x="55" y="256"/>
      <point x="55" y="199" type="curve" smooth="yes"/>
      <point x="55" y="98"/>
      <point x="145" y="40"/>
      <point x="294" y="40" type="curve" smooth="yes"/>
      <point x="362" y="40"/>
      <point x="421" y="52"/>
      <point x="467" y="72" type="curve"/>
      <point x="467" y="155" type="line"/>
      <point x="424" y="132"/>
      <point x="374" y="122"/>
      <point x="296" y="122" type="curve" smooth="yes"/>
    </contour>
  </outline>
</glyph>
<glyph name="divide.lf" format="1">
  <advance width="646"/>
  <outline>
    <contour>
      <point x="71" y="379" type="line"/>
      <point x="71" y="301" type="line"/>
      <point x="575" y="301" type="line"/>
      <point x="575" y="379" type="line"/>
    </contour>
    <contour>
      <point x="281" y="642"/>
      <point x="254" y="618"/>
      <point x="254" y="573" type="curve" smooth="yes"/>
      <point x="254" y="528"/>
      <point x="281" y="504"/>
      <point x="322" y="504" type="curve" smooth="yes"/>
      <point x="363" y="504"/>
      <point x="390" y="528"/>
      <point x="390" y="573" type="curve" smooth="yes"/>
      <point x="390" y="618"/>
      <point x="363" y="642"/>
      <point x="322" y="642" type="curve" smooth="yes"/>
    </contour>
    <contour>
      <point x="281" y="176"/>
      <point x="254" y="152"/>
      <point x="254" y="107" type="curve" smooth="yes"/>
      <point x="254" y="62"/>
      <point x="281" y="38"/>
      <point x="322" y="38" type="curve" smooth="yes"/>
      <point x="363" y="38"/>
      <point x="390" y="62"/>
      <point x="390" y="107" type="curve" smooth="yes"/>
      <point x="390" y="152"/>
      <point x="363" y="176"/>
      <point x="322" y="176" type="curve" smooth="yes"/>
    </contour>
  </outline>
</glyph>
<glyph name="eCandraMatra-deva.offset" format="1">
  <advance width="250"/>
  <outline>
    <contour>
      <point x="233" y="730"/>
      <point x="280" y="775"/>
      <point x="280" y="866" type="curve"/>
      <point x="220" y="866" type="line"/>
      <point x="220" y="823"/>
      <point x="194" y="800"/>
      <point x="125" y="800" type="curve" smooth="yes"/>
      <point x="60" y="800"/>
      <point x="30" y="820"/>
      <point x="30" y="866" type="curve"/>
      <point x="-30" y="866" type="line"/>
      <point x="-30" y="777"/>
      <point x="15" y="730"/>
      <point x="125" y="730" type="curve" smooth="yes"/>
    </contour>
    <contour>
      <point x="125" y="815" type="move" name="top"/>
    </contour>
    <contour>
      <point x="-56" y="680" type="move" name="_top"/>
    </contour>
  </outline>
</glyph>
<glyph name="eMatra_reph-deva" format="1">
  <advance width="250"/>
  <outline>
    <component base="eMatra-deva"/>
    <component base="reph-deva.imatra"/>
    <contour>
      <point x="130" y="680" type="move" name="_top"/>
    </contour>
  </outline>
</glyph>
<glyph name="eMatra_reph_anusvara-deva" format="1">
  <advance width="250"/>
  <outline>
    <component base="eMatra_reph-deva"/>
    <component base="anusvara-deva" xOffset="142" yOffset="-25"/>
    <contour>
      <point x="130" y="680" type="move" name="_top"/>
    </contour>
  </outline>
</glyph>
<glyph name="gh-deva" format="1">
  <advance width="353"/>
  <outline>
    <contour>
      <point x="488" y="604" type="line"/>
      <point x="488" y="680" type="line"/>
      <point x="-10" y="680" type="line"/>
      <point x="-10" y="604" type="line"/>
    </contour>
    <contour>
      <point x="339" y="100"/>
      <point x="414" y="125"/>
      <point x="455" y="164" type="curve"/>
      <point x="455" y="232" type="line"/>
      <point x="400" y="199"/>
      <point x="341" y="182"/>
      <point x="263" y="182" type="curve" smooth="yes"/>
      <point x="162" y="182"/>
      <point x="136" y="209"/>
      <point x="136" y="274" type="curve" smooth="yes"/>
      <point x="136" y="333"/>
      <point x="157" y="357"/>
      <point x="242" y="357" type="curve" smooth="yes"/>
      <point x="304" y="357" type="line"/>
      <point x="304" y="435" type="line"/>
      <point x="245" y="435" type="line" smooth="yes"/>
      <point x="131" y="435"/>
      <point x="110" y="457"/>
      <point x="110" y="532" type="curve" smooth="yes"/>
      <point x="110" y="569"/>
      <point x="115" y="588"/>
      <point x="127" y="614" type="curve"/>
      <point x="51" y="614" type="line"/>
      <point x="41" y="592"/>
      <point x="38" y="564"/>
      <point x="38" y="540" type="curve" smooth="yes"/>
      <point x="38" y="444"/>
      <point x="84" y="398"/>
      <point x="163" y="386" type="curve"/>
      <point x="163" y="405" type="line"/>
      <point x="97" y="393"/>
      <point x="64" y="341"/>
      <point x="64" y="268" type="curve" smooth="yes"/>
      <point x="64" y="165"/>
      <point x="131" y="100"/>
      <point x="260" y="100" type="curve" smooth="yes"/>
    </contour>
    <contour>
      <point x="93" y="0" type="move" name="nukta"/>
    </contour>
  </outline>
</glyph>
<glyph name="h_na-deva" format="1">
  <advance width="537"/>
  <outline>
    <contour>
      <point x="302" y="-22"/>
      <point x="320" y="-13"/>
      <point x="343" y="9" type="curve"/>
      <point x="306" y="111" type="line"/>
      <point x="295" y="82" type="line"/>
      <point x="419" y="217" type="line"/>
      <point x="380" y="257" type="line"/>
      <point x="245" y="119" type="line" smooth="yes"/>
      <point x="218" y="92"/>
      <point x="210" y="72"/>
      <point x="210" y="53" type="curve" smooth="yes"/>
      <point x="210" y="15"/>
      <point x="244" y="-22"/>
      <point x="283" y="-22" type="curve" smooth="yes"/>
    </contour>
    <component base="ha-deva.post"/>
  </outline>
</glyph>
<glyph name="hungarumlaut.case" format="1">
  <advance width="500"/>
  <outline>
    <contour>
      <point x="191" y="914" type="line"/>
      <point x="121" y="740" type="line"/>
      <point x="201" y="740" type="line"/>
      <point x="294" y="914" type="line"/>
    </contour>
    <contour>
      <point x="369" y="914" type="line"/>
      <point x="299" y="740" type="line"/>
      <point x="379" y="740" type="line"/>
      <point x="472" y="914" type="line"/>
    </contour>
    <contour>
      <point x="250" y="680" type="move" name="_top"/>
    </contour>
  </outline>
</glyph>
<glyph name="iMatra-deva.02" format="1">
  <advance width="260"/>
  <outline>
    <contour>
      <point x="146" y="964"/>
      <point x="70" y="905"/>
      <point x="70" y="792" type="curve" smooth="yes"/>
      <point x="70" y="751"/>
      <point x="80" y="706"/>
      <point x="98" y="670" type="curve"/>
      <point x="162" y="670" type="line"/>
      <point x="146" y="710"/>
      <point x="138" y="743"/>
      <point x="138" y="779" type="curve" smooth="yes"/>
      <point x="138" y="861"/>
      <point x="175" y="888"/>
      <point x="300" y="888" type="curve" smooth="yes"/>
      <point x="448" y="888"/>
      <point x="555" y="850"/>
      <point x="692" y="740" type="curve"/>
      <point x="692" y="816" type="line"/>
      <point x="574" y="910"/>
      <point x="446" y="964"/>
      <point x="298" y="964" type="curve" smooth="yes"/>
    </contour>
    <component base="aaMatra-deva"/>
    <contour>
      <point x="672" y="740" type="move" name="imatra"/>
    </contour>
    <contour>
      <point x="658" y="810" type="move" name="top"/>
    </contour>
  </outline>
</glyph>
<glyph name="iMatra-deva.06" format="1">
  <advance width="260"/>
  <outline>
    <contour>
      <point x="163" y="987"/>
      <point x="69" y="931"/>
      <point x="69" y="796" type="curve" smooth="yes"/>
      <point x="69" y="752"/>
      <point x="79" y="710"/>
      <point x="98" y="670" type="curve"/>
      <point x="163" y="670" type="line"/>
      <point x="147" y="705"/>
      <point x="137" y="742"/>
      <point x="137" y="786" type="curve" smooth="yes"/>
      <point x="137" y="884"/>
      <point x="188" y="911"/>
      <point x="401" y="911" type="curve" smooth="yes"/>
      <point x="658" y="911"/>
      <point x="810" y="873"/>
      <point x="1073" y="739" type="curve"/>
      <point x="1073" y="810" type="line"/>
      <point x="847" y="932"/>
      <point x="640" y="987"/>
      <point x="401" y="987" type="curve" smooth="yes"/>
    </contour>
    <component base="aaMatra-deva"/>
    <contour>
      <point x="1053" y="739" type="move" name="imatra"/>
    </contour>
    <contour>
      <point x="1039" y="809" type="move" name="top"/>
    </contour>
  </outline>
</glyph>
<glyph name="iMatra-deva.09" format="1">
  <advance width="260"/>
  <outline>
    <contour>
      <point x="176" y="1004"/>
      <point x="68" y="951"/>
      <point x="68" y="799" type="curve" smooth="yes"/>
      <point x="68" y="753"/>
      <point x="78" y="713"/>
      <point x="98" y="670" type="curve"/>
      <point x="163" y="670" type="line"/>
      <point x="148" y="701"/>
      <point x="136" y="742"/>
      <point x="136" y="791" type="curve" smooth="yes"/>
      <point x="136" y="902"/>
      <point x="198" y="928"/>
      <point x="477" y="928" type="curve" smooth="yes"/>
      <point x="815" y="928"/>
      <point x="1002" y="890"/>
      <point x="1358" y="738" type="curve"/>
      <point x="1358" y="806" type="line"/>
      <point x="1051" y="949"/>
      <point x="785" y="1004"/>
      <point x="478" y="1004" type="curve" smooth="yes"/>
    </contour>
    <component base="aaMatra-deva"/>
    <contour>
      <point x="1338" y="738" type="move" name="imatra"/>
    </contour>
    <contour>
      <point x="1324" y="808" type="move" name="top"/>
    </contour>
  </outline>
</glyph>
<glyph name="j_nya_ra-deva" format="1">
  <advance width="702"/>
  <outline>
    <contour>
      <point x="548" y="206" type="line"/>
      <point x="179" y="-100" type="line"/>
      <point x="292" y="-100" type="line"/>
      <point x="548" y="115" type="line"/>
    </contour>
    <component base="j_nya-deva"/>
  </outline>
</glyph>
<glyph name="ja_ra-deva" format="1">
  <advance width="694"/>
  <outline>
    <contour>
      <point x="546" y="216" type="line"/>
      <point x="167" y="-100" type="line"/>
      <point x="280" y="-100" type="line"/>
      <point x="546" y="125" type="line"/>
    </contour>
    <component base="ja-deva"/>
  </outline>
</glyph>
<glyph name="jh-deva.loclNEP" format="1">
  <advance width="782"/>
  <outline>
    <contour>
      <point x="925" y="345" type="line"/>
      <point x="910" y="442"/>
      <point x="873" y="496"/>
      <point x="760" y="496" type="curve" smooth="yes"/>
      <point x="691" y="496"/>
      <point x="628" y="476"/>
      <point x="585" y="443" type="curve"/>
      <point x="585" y="373" type="line"/>
      <point x="627" y="399"/>
      <point x="677" y="414"/>
      <point x="748" y="414" type="curve" smooth="yes"/>
      <point x="826" y="414"/>
      <point x="854" y="396"/>
      <point x="865" y="345" type="curve"/>
    </contour>
    <contour>
      <point x="789" y="604" type="line"/>
      <point x="789" y="680" type="line"/>
      <point x="691" y="680" type="line"/>
      <point x="691" y="604" type="line"/>
    </contour>
    <component base="bha-deva"/>
  </outline>
</glyph>
<glyph name="k-deva" format="1">
  <advance width="663"/>
  <outline>
    <contour>
      <point x="-10" y="680" type="line"/>
      <point x="-10" y="604" type="line"/>
      <point x="763" y="604" type="line"/>
      <point x="763" y="680" type="line"/>
    </contour>
    <contour>
      <point x="764" y="386" type="line"/>
      <point x="734" y="432"/>
      <point x="687" y="452"/>
      <point x="618" y="452" type="curve" smooth="yes"/>
      <point x="548" y="452"/>
      <point x="497" y="434"/>
      <point x="442" y="396" type="curve"/>
      <point x="442" y="325" type="line"/>
      <point x="492" y="357"/>
      <point x="555" y="370"/>
      <point x="613" y="370" type="curve" smooth="yes"/>
      <point x="671" y="370"/>
      <point x="716" y="358"/>
      <point x="764" y="314" type="curve"/>
    </contour>
    <contour>
      <point x="102" y="496"/>
      <point x="40" y="444"/>
      <point x="40" y="303" type="curve" smooth="yes"/>
      <point x="40" y="163"/>
      <point x="102" y="110"/>
      <point x="233" y="110" type="curve" smooth="yes"/>
      <point x="306" y="110"/>
      <point x="350" y="126"/>
      <point x="393" y="150" type="curve"/>
      <point x="393" y="218" type="line"/>
      <point x="347" y="198"/>
      <point x="310" y="192"/>
      <point x="252" y="192" type="curve" smooth="yes"/>
      <point x="143" y="192"/>
      <point x="112" y="214"/>
      <point x="112" y="302" type="curve" smooth="yes"/>
      <point x="112" y="392"/>
      <point x="144" y="414"/>
      <point x="251" y="414" type="curve" smooth="yes"/>
      <point x="312" y="414"/>
      <point x="347" y="407"/>
      <point x="392" y="387" type="curve"/>
      <point x="392" y="459" type="line"/>
      <point x="348" y="481"/>
      <point x="304" y="496"/>
      <point x="233" y="496" type="curve" smooth="yes"/>
    </contour>
    <contour>
      <point x="382" y="614" type="line"/>
      <point x="382" y="0" type="line"/>
      <point x="450" y="0" type="line"/>
      <point x="450" y="614" type="line"/>
    </contour>
    <contour>
      <point x="76" y="0" type="move" name="nukta"/>
    </contour>
    <contour>
      <point x="416" y="0" type="move" name="bottom"/>
    </contour>
  </outline>
</glyph>
<glyph name="k_t_ta-deva" format="1">
  <advance width="897"/>
  <outline>
    <contour>
      <point x="447" y="614" type="line"/>
      <point x="447" y="0" type="line"/>
      <point x="515" y="0" type="line"/>
      <point x="515" y="614" type="line"/>
    </contour>
    <contour>
      <point x="-10" y="680" type="line"/>
      <point x="-10" y="604" type="line"/>
      <point x="907" y="604" type="line"/>
      <point x="907" y="680" type="line"/>
    </contour>
    <contour>
      <point x="399" y="373" type="line"/>
      <point x="399" y="449" type="line"/>
      <point x="0" y="449" type="line"/>
      <point x="0" y="373" type="line"/>
    </contour>
    <contour>
      <point x="125" y="207"/>
      <point x="148" y="116"/>
      <point x="194" y="0" type="curve"/>
      <point x="264" y="0" type="line"/>
      <point x="225" y="111"/>
      <point x="199" y="196"/>
      <point x="199" y="265" type="curve" smooth="yes"/>
      <point x="199" y="343"/>
      <point x="233" y="373"/>
      <point x="318" y="373" type="curve" smooth="yes"/>
      <point x="457" y="373" type="line"/>
      <point x="457" y="449" type="line"/>
      <point x="310" y="449" type="line" smooth="yes"/>
      <point x="176" y="449"/>
      <point x="125" y="398"/>
      <point x="125" y="284" type="curve" smooth="yes"/>
    </contour>
    <contour>
      <point x="605" y="114" type="line"/>
      <point x="630" y="111"/>
      <point x="657" y="110"/>
      <point x="677" y="110" type="curve" smooth="yes"/>
      <point x="741" y="110"/>
      <point x="784" y="121"/>
      <point x="812" y="150" type="curve" smooth="yes"/>
      <point x="842" y="181"/>
      <point x="856" y="232"/>
      <point x="856" y="301" type="curve" smooth="yes"/>
      <point x="856" y="444"/>
      <point x="795" y="496"/>
      <point x="663" y="496" type="curve" smooth="yes"/>
      <point x="592" y="496"/>
      <point x="548" y="481"/>
      <point x="504" y="459" type="curve"/>
      <point x="504" y="387" type="line"/>
      <point x="549" y="407"/>
      <point x="583" y="414"/>
      <point x="646" y="414" type="curve" smooth="yes"/>
      <point x="757" y="414"/>
      <point x="784" y="392"/>
      <point x="784" y="300" type="curve" smooth="yes"/>
      <point x="784" y="213"/>
      <point x="760" y="192"/>
      <point x="671" y="192" type="curve" smooth="yes"/>
      <point x="651" y="192"/>
      <point x="628" y="193"/>
      <point x="605" y="196" type="curve"/>
    </contour>
    <contour>
      <point x="482" y="680" type="move" name="top"/>
    </contour>
    <contour>
      <point x="482" y="0" type="move" name="bottom"/>
    </contour>
  </outline>
</glyph>
<glyph name="l-deva" format="1">
  <advance width="503"/>
  <outline>
    <contour>
      <point x="311" y="0" type="line"/>
      <point x="311" y="78" type="line"/>
      <point x="266" y="78" type="line" smooth="yes"/>
      <point x="226" y="78"/>
      <point x="177" y="79"/>
      <point x="153" y="97" type="curve" smooth="yes"/>
      <point x="124" y="118"/>
      <point x="117" y="170"/>
      <point x="117" y="230" type="curve" smooth="yes"/>
      <point x="117" y="349"/>
      <point x="145" y="385"/>
      <point x="241" y="385" type="curve" smooth="yes"/>
      <point x="298" y="385"/>
      <point x="329" y="372"/>
      <point x="356" y="327" type="curve"/>
      <point x="392" y="388" type="line"/>
      <point x="351" y="444"/>
      <point x="311" y="467"/>
      <point x="231" y="467" type="curve" smooth="yes"/>
      <point x="100" y="467"/>
      <point x="45" y="405"/>
      <point x="45" y="234" type="curve" smooth="yes"/>
      <point x="45" y="139"/>
      <point x="62" y="70"/>
      <point x="111" y="32" type="curve" smooth="yes"/>
      <point x="140" y="10"/>
      <point x="174" y="0"/>
      <point x="257" y="0" type="curve" smooth="yes"/>
    </contour>
    <contour>
      <point x="391" y="196" type="line"/>
      <point x="391" y="223" type="line" smooth="yes"/>
      <point x="391" y="350"/>
      <point x="419" y="385"/>
      <point x="499" y="385" type="curve" smooth="yes"/>
      <point x="557" y="385"/>
      <point x="584" y="370"/>
      <point x="596" y="325" type="curve"/>
      <point x="650" y="325" type="line"/>
      <point x="650" y="438"/>
      <point x="579" y="467"/>
      <point x="507" y="467" type="curve" smooth="yes"/>
      <point x="372" y="467"/>
      <point x="321" y="393"/>
      <point x="321" y="223" type="curve" smooth="yes"/>
      <point x="321" y="196" type="line"/>
    </contour>
    <contour>
      <point x="608" y="604" type="line"/>
      <point x="608" y="680" type="line"/>
      <point x="-10" y="680" type="line"/>
      <point x="-10" y="604" type="line"/>
    </contour>
    <contour>
      <point x="60" y="-39" type="move" name="nukta"/>
    </contour>
  </outline>
</glyph>
<glyph name="lessequal.lf" format="1">
  <advance width="646"/>
  <outline>
    <contour>
      <point x="70" y="395" type="line"/>
      <point x="70" y="323" type="line"/>
      <point x="576" y="88" type="line"/>
      <point x="576" y="177" type="line"/>
      <point x="157" y="359" type="line"/>
      <point x="576" y="541" type="line"/>
      <point x="576" y="630" type="line"/>
    </contour>
    <contour>
      <point x="70" y="78" type="line"/>
      <point x="70" y="0" type="line"/>
      <point x="576" y="0" type="line"/>
      <point x="576" y="78" type="line"/>
    </contour>
  </outline>
</glyph>
<glyph name="ng_deva.post" format="1">
  <advance width="634"/>
  <outline>
    <contour>
      <point x="644" y="604" type="line"/>
      <point x="644" y="680" type="line"/>
      <point x="526" y="680" type="line"/>
      <point x="526" y="604" type="line"/>
    </contour>
    <component base="dda-deva.post"/>
    <component base="nukta-deva" xOffset="452" yOffset="535"/>
    <contour>
      <point x="279" y="0" type="move" name="bottom"/>
    </contour>
  </outline>
</glyph>
<glyph name="nine.lf" format="1">
  <advance width="658"/>
  <outline>
    <contour>
      <point x="131" y="692"/>
      <point x="38" y="598"/>
      <point x="38" y="460" type="curve" smooth="yes"/>
      <point x="38" y="342"/>
      <point x="107" y="257"/>
      <point x="271" y="257" type="curve" smooth="yes"/>
      <point x="376" y="257"/>
      <point x="462" y="292"/>
      <point x="528" y="336" type="curve"/>
      <point x="528" y="408" type="line"/>
      <point x="470" y="365"/>
      <point x="383" y="331"/>
      <point x="286" y="331" type="curve" smooth="yes"/>
      <point x="174" y="331"/>
      <point x="128" y="377"/>
      <point x="128" y="464" type="curve" smooth="yes"/>
      <point x="128" y="565"/>
      <point x="190" y="618"/>
      <point x="308" y="618" type="curve" smooth="yes"/>
      <point x="459" y="618"/>
      <point x="518" y="532"/>
      <point x="518" y="348" type="curve" smooth="yes"/>
      <point x="518" y="136"/>
      <point x="440" y="63"/>
      <point x="282" y="63" type="curve" smooth="yes"/>
      <point x="250" y="63"/>
      <point x="206" y="66"/>
      <point x="173" y="79" type="curve"/>
      <point x="184" y="70" type="line"/>
      <point x="143" y="179" type="line"/>
      <point x="81" y="179"/>
      <point x="48" y="151"/>
      <point x="48" y="107" type="curve" smooth="yes"/>
      <point x="48" y="43"/>
      <point x="118" y="-12"/>
      <point x="275" y="-12" type="curve" smooth="yes"/>
      <point x="492" y="-12"/>
      <point x="608" y="92"/>
      <point x="608" y="337" type="curve" smooth="yes"/>
      <point x="608" y="571"/>
      <point x="503" y="692"/>
      <point x="305" y="692" type="curve" smooth="yes"/>
    </contour>
  </outline>
</glyph>
<glyph name="pha_ra-deva" format="1">
  <advance width="864"/>
  <note>
	dPhRa
  </note>
  <outline>
    <contour>
      <point x="189" y="-25" type="line"/>
      <point x="458" y="241" type="line"/>
      <point x="361" y="241" type="line"/>
      <point x="86" y="-25" type="line"/>
    </contour>
    <component base="pha-deva"/>
    <contour>
      <point x="86" y="120" type="move" name="nukta"/>
    </contour>
  </outline>
</glyph>
<glyph name="plusminus.lf" format="1">
  <advance width="646"/>
  <outline>
    <contour>
      <point x="286" y="680" type="line"/>
      <point x="286" y="172" type="line"/>
      <point x="360" y="172" type="line"/>
      <point x="360" y="680" type="line"/>
    </contour>
    <contour>
      <point x="70" y="465" type="line"/>
      <point x="70" y="387" type="line"/>
      <point x="576" y="387" type="line"/>
      <point x="576" y="465" type="line"/>
    </contour>
    <contour>
      <point x="70" y="78" type="line"/>
      <point x="70" y="0" type="line"/>
      <point x="576" y="0" type="line"/>
      <point x="576" y="78" type="line"/>
    </contour>
  </outline>
</glyph>
<glyph name="rakar_uMatra-deva" format="1">
  <advance width="250"/>
  <outline>
    <component base="rakar-deva"/>
    <component base="uMatra-deva" xOffset="9" yOffset="-175"/>
    <contour>
      <point x="125" y="0" type="move" name="_bottom"/>
    </contour>
  </outline>
</glyph>
<glyph name="reph_anusvara-deva.imatra" format="1">
  <advance width="250"/>
  <outline>
    <component base="reph-deva.imatra"/>
    <component base="anusvara-deva" xOffset="137" yOffset="-25"/>
    <contour>
      <point x="130" y="680" type="move" name="_top "/>
    </contour>
  </outline>
</glyph>
<glyph name="rupeeIndian.alt" format="1">
  <advance width="631"/>
  <outline>
    <contour>
      <point x="576" y="338" type="line"/>
      <point x="576" y="398" type="line"/>
      <point x="65" y="398" type="line"/>
      <point x="65" y="338" type="line"/>
    </contour>
    <contour>
      <point x="576" y="488" type="line"/>
      <point x="576" y="548" type="line"/>
      <point x="314" y="548" type="line"/>
      <point x="314" y="488" type="line"/>
    </contour>
    <contour>
      <point x="511" y="0" type="line"/>
      <point x="511" y="55" type="line"/>
      <point x="195" y="202" type="line"/>
      <point x="195" y="188" type="line"/>
      <point x="322" y="188" type="line" smooth="yes"/>
      <point x="428" y="188"/>
      <point x="496" y="227"/>
      <point x="496" y="368" type="curve" smooth="yes"/>
      <point x="496" y="509"/>
      <point x="428" y="548"/>
      <point x="322" y="548" type="curve" smooth="yes"/>
      <point x="65" y="548" type="line"/>
      <point x="65" y="488" type="line"/>
      <point x="309" y="488" type="line" smooth="yes"/>
      <point x="381" y="488"/>
      <point x="412" y="465"/>
      <point x="412" y="368" type="curve" smooth="yes"/>
      <point x="412" y="271"/>
      <point x="381" y="248"/>
      <point x="309" y="248" type="curve" smooth="yes"/>
      <point x="65" y="248" type="line"/>
      <point x="65" y="188" type="line"/>
      <point x="432" y="0" type="line"/>
    </contour>
  </outline>
</glyph>
<glyph name="sha_ra-deva" format="1">
  <advance width="711"/>
  <outline>
    <contour>
      <point x="274" y="0" type="line"/>
      <point x="566" y="299" type="line"/>
      <point x="468" y="299" type="line"/>
      <point x="172" y="0" type="line"/>
    </contour>
    <component base="sh-deva.base"/>
  </outline>
</glyph>
<glyph name="ss-deva" format="1">
  <advance width="349"/>
  <outline>
    <contour>
      <point x="347" y="160"/>
      <point x="397" y="169"/>
      <point x="440" y="188" type="curve"/>
      <point x="440" y="262" type="line"/>
      <point x="397" y="248"/>
      <point x="346" y="242"/>
      <point x="299" y="242" type="curve" smooth="yes"/>
      <point x="193" y="242"/>
      <point x="149" y="272"/>
      <point x="149" y="365" type="curve" smooth="yes"/>
      <point x="149" y="616" type="line"/>
      <point x="81" y="616" type="line"/>
      <point x="81" y="368" type="line" smooth="yes"/>
      <point x="81" y="224"/>
      <point x="158" y="160"/>
      <point x="295" y="160" type="curve" smooth="yes"/>
    </contour>
    <contour>
      <point x="436" y="244" type="line"/>
      <point x="202" y="631" type="line"/>
      <point x="130" y="642" type="line"/>
      <point x="386" y="216" type="line"/>
    </contour>
    <contour>
      <point x="449" y="604" type="line"/>
      <point x="449" y="680" type="line"/>
      <point x="-10" y="680" type="line"/>
      <point x="-10" y="604" type="line"/>
    </contour>
    <contour>
      <point x="156" y="65" type="move" name="nukta"/>
    </contour>
  </outline>
</glyph>
<glyph name="t_na-deva" format="1">
  <advance width="901"/>
  <outline>
    <contour>
      <point x="-10" y="680" type="line"/>
      <point x="-10" y="604" type="line"/>
      <point x="421" y="604" type="line"/>
      <point x="421" y="680" type="line"/>
    </contour>
    <contour>
      <point x="40" y="207"/>
      <point x="63" y="116"/>
      <point x="109" y="0" type="curve"/>
      <point x="181" y="0" type="line"/>
      <point x="142" y="111"/>
      <point x="116" y="197"/>
      <point x="116" y="265" type="curve" smooth="yes"/>
      <point x="116" y="344"/>
      <point x="152" y="371"/>
      <point x="253" y="371" type="curve" smooth="yes"/>
      <point x="325" y="371"/>
      <point x="383" y="357"/>
      <point x="419" y="330" type="curve"/>
      <point x="440" y="392" type="line"/>
      <point x="389" y="434"/>
      <point x="333" y="449"/>
      <point x="251" y="449" type="curve" smooth="yes"/>
      <point x="96" y="449"/>
      <point x="40" y="400"/>
      <point x="40" y="283" type="curve" smooth="yes"/>
    </contour>
    <component base="na-deva" xOffset="321"/>
    <contour>
      <point x="22" y="0" type="move" name="nukta"/>
    </contour>
  </outline>
</glyph>
<glyph name="ta_ra-deva" format="1">
  <advance width="521"/>
  <note>
	dTR.half
  </note>
  <outline>
    <contour>
      <point x="383" y="291" type="line"/>
      <point x="235" y="423" type="line" smooth="yes"/>
      <point x="203" y="451"/>
      <point x="181" y="469"/>
      <point x="137" y="469" type="curve" smooth="yes"/>
      <point x="82" y="469"/>
      <point x="51" y="442"/>
      <point x="15" y="400" type="curve" smooth="yes"/>
      <point x="-2" y="380" type="line"/>
      <point x="64" y="324" type="line"/>
      <point x="82" y="345" type="line" smooth="yes"/>
      <point x="103" y="369"/>
      <point x="119" y="378"/>
      <point x="146" y="378" type="curve" smooth="yes"/>
      <point x="172" y="378"/>
      <point x="185" y="370"/>
      <point x="215" y="343" type="curve" smooth="yes"/>
      <point x="333" y="239" type="line"/>
    </contour>
    <contour>
      <point x="425" y="0" type="line"/>
      <point x="425" y="614" type="line"/>
      <point x="357" y="614" type="line"/>
      <point x="357" y="0" type="line"/>
    </contour>
    <contour>
      <point x="531" y="604" type="line"/>
      <point x="531" y="680" type="line"/>
      <point x="-10" y="680" type="line"/>
      <point x="-10" y="604" type="line"/>
    </contour>
    <contour>
      <point x="16" y="0" type="line"/>
      <point x="121" y="0" type="line"/>
      <point x="397" y="266" type="line"/>
      <point x="345" y="313" type="line"/>
    </contour>
    <contour>
      <point x="241" y="-65" type="move" name="nukta"/>
    </contour>
    <contour>
      <point x="391" y="0" type="move" name="bottom"/>
    </contour>
    <contour>
      <point x="391" y="680" type="move" name="top"/>
    </contour>
  </outline>
</glyph>
<glyph name="tilde.case" format="1">
  <advance width="500"/>
  <outline>
    <contour>
      <point x="95" y="879"/>
      <point x="52" y="829"/>
      <point x="52" y="740" type="curve"/>
      <point x="112" y="740" type="line"/>
      <point x="113" y="787"/>
      <point x="126" y="809"/>
      <point x="160" y="809" type="curve" smooth="yes"/>
      <point x="212" y="809"/>
      <point x="234" y="736"/>
      <point x="329" y="736" type="curve" smooth="yes"/>
      <point x="406" y="736"/>
      <point x="448" y="785"/>
      <point x="448" y="875" type="curve"/>
      <point x="388" y="875" type="line"/>
      <point x="386" y="827"/>
      <point x="374" y="806"/>
      <point x="340" y="806" type="curve" smooth="yes"/>
      <point x="284" y="806"/>
      <point x="263" y="879"/>
      <point x="172" y="879" type="curve" smooth="yes"/>
    </contour>
    <contour>
      <point x="250" y="680" type="move" name="_top"/>
    </contour>
  </outline>
</glyph>
<glyph name="tt_ttha-deva" format="1">
  <advance width="505"/>
  <outline>
    <contour>
      <point x="413" y="-321"/>
      <point x="475" y="-248"/>
      <point x="475" y="-126" type="curve" smooth="yes"/>
      <point x="475" y="-4"/>
      <point x="413" y="69"/>
      <point x="248" y="69" type="curve" smooth="yes"/>
      <point x="83" y="69"/>
      <point x="21" y="-4"/>
      <point x="21" y="-126" type="curve" smooth="yes"/>
      <point x="21" y="-248"/>
      <point x="83" y="-321"/>
      <point x="248" y="-321" type="curve" smooth="yes"/>
    </contour>
    <contour>
      <point x="120" y="-245"/>
      <point x="87" y="-205"/>
      <point x="87" y="-126" type="curve" smooth="yes"/>
      <point x="87" y="-47"/>
      <point x="120" y="-7"/>
      <point x="248" y="-7" type="curve" smooth="yes"/>
      <point x="376" y="-7"/>
      <point x="409" y="-47"/>
      <point x="409" y="-126" type="curve" smooth="yes"/>
      <point x="409" y="-205"/>
      <point x="376" y="-245"/>
      <point x="248" y="-245" type="curve" smooth="yes"/>
    </contour>
    <contour>
      <point x="386" y="13" type="line"/>
      <point x="386" y="176" type="line"/>
      <point x="324" y="176" type="line"/>
      <point x="324" y="13" type="line"/>
    </contour>
    <component base="tt_tta-deva.post"/>
    <contour>
      <point x="25" y="-349" type="move" name="nukta"/>
    </contour>
    <contour>
      <point x="256" y="-299" type="move" name="bottom"/>
    </contour>
  </outline>
</glyph>
<glyph name="two.lf" format="1">
  <advance width="613"/>
  <outline>
    <contour>
      <point x="144" y="692"/>
      <point x="45" y="632"/>
      <point x="45" y="524" type="curve" smooth="yes"/>
      <point x="45" y="463"/>
      <point x="76" y="429"/>
      <point x="125" y="429" type="curve" smooth="yes"/>
      <point x="157" y="429"/>
      <point x="181" y="443"/>
      <point x="190" y="467" type="curve"/>
      <point x="144" y="586" type="line"/>
      <point x="137" y="564" type="line"/>
      <point x="166" y="598"/>
      <point x="214" y="618"/>
      <point x="300" y="618" type="curve" smooth="yes"/>
      <point x="415" y="618"/>
      <point x="456" y="582"/>
      <point x="456" y="484" type="curve" smooth="yes"/>
      <point x="456" y="387"/>
      <point x="416" y="347"/>
      <point x="35" y="118" type="curve"/>
      <point x="35" y="0" type="line"/>
      <point x="566" y="0" type="line"/>
      <point x="566" y="141" type="line"/>
      <point x="507" y="141" type="line"/>
      <point x="491" y="72" type="line"/>
      <point x="71" y="72" type="line"/>
      <point x="71" y="57" type="line"/>
      <point x="480" y="287"/>
      <point x="546" y="356"/>
      <point x="546" y="484" type="curve" smooth="yes"/>
      <point x="546" y="622"/>
      <point x="469" y="692"/>
      <point x="300" y="692" type="curve" smooth="yes"/>
    </contour>
  </outline>
</glyph>
<glyph name="y_ra-deva" format="1">
  <advance width="335"/>
  <note>
	dYR.half
  </note>
  <outline>
    <contour>
      <point x="216" y="0" type="line"/>
      <point x="423" y="192" type="line"/>
      <point x="371" y="234" type="line"/>
      <point x="108" y="0" type="line"/>
    </contour>
    <component base="y-deva"/>
    <contour>
      <point x="77" y="106" type="move" name="nukta"/>
    </contour>
  </outline>
</glyph>
<glyph name="yen.lf" format="1">
  <advance width="690"/>
  <outline>
    <contour>
      <point x="50" y="294" type="line"/>
      <point x="50" y="222" type="line"/>
      <point x="640" y="222" type="line"/>
      <point x="640" y="294" type="line"/>
    </contour>
    <contour>
      <point x="50" y="458" type="line"/>
      <point x="50" y="386" type="line"/>
      <point x="261" y="386" type="line"/>
      <point x="261" y="458" type="line"/>
    </contour>
    <contour>
      <point x="443" y="458" type="line"/>
      <point x="443" y="386" type="line"/>
      <point x="640" y="386" type="line"/>
      <point x="640" y="458" type="line"/>
    </contour>
    <contour>
      <point x="446" y="680" type="line"/>
      <point x="446" y="623" type="line"/>
      <point x="515" y="594" type="line"/>
      <point x="345" y="325" type="line"/>
      <point x="360" y="325" type="line"/>
      <point x="189" y="594" type="line"/>
      <point x="259" y="623" type="line"/>
      <point x="259" y="680" type="line"/>
      <point x="25" y="680" type="line"/>
      <point x="25" y="623" type="line"/>
      <point x="90" y="594" type="line"/>
      <point x="302" y="267" type="line"/>
      <point x="302" y="85" type="line"/>
      <point x="218" y="55" type="line"/>
      <point x="218" y="0" type="line"/>
      <point x="472" y="0" type="line"/>
      <point x="472" y="55" type="line"/>
      <point x="388" y="85" type="line"/>
      <point x="388" y="267" type="line"/>
      <point x="601" y="594" type="line"/>
      <point x="665" y="623" type="line"/>
      <point x="665" y="680" type="line"/>
    </contour>
  </outline>
</glyph>
